<svg version="1.1" xmlns="http://www.w3.org/2000/svg" xmlns:xlink="http://www.w3.org/1999/xlink" x="0px" y="0px" viewBox="0 0 1000 1000" enable-background="new 0 0 1000 1000" xml:space="preserve">
<g><path d="M928.7,561.2h-67c-8.9,55.5-29.7,105.9-62.2,151.2l49.8,49.8c12.1,11.5,18.2,25.8,18.2,43.1c0,17.2-6.1,31.9-18.2,44c-12.1,12.1-26.8,18.2-44,18.2c-17.2,0-31.9-6.1-44-18.2l-48.8-49.8c-45.9,32.5-96.3,53.3-151.2,62.2v67c0,17.2-6.1,31.7-18.2,43.5c-12.1,11.8-26.6,17.7-43.5,17.7c-16.9,0-31.3-5.9-43.1-17.7c-11.8-11.8-17.7-26.3-17.7-43.5v-67c-55.5-8.9-105.9-29.7-151.2-62.2l-50.7,49.8c-11.5,12.1-25.8,18.2-43.1,18.2s-31.9-6.1-44-18.2c-12.1-12.1-18.2-26.8-18.2-44c0-17.2,6.1-31.6,18.2-43.1l49.8-50.7c-31.9-45.3-52.3-95.4-61.2-150.2h-67c-17.2,0-31.7-5.9-43.5-17.7C15.9,531.8,10,517.5,10,500.6c0-16.9,5.9-31.4,17.7-43.5s26.3-18.2,43.5-18.2h67c8.9-54.9,29.7-105.3,62.2-151.2l-50.7-49.8c-12.1-12.1-18.2-26.8-18.2-44s6.1-31.9,18.2-44s26.8-18.2,44-18.2s31.6,6.1,43.1,18.2l50.7,50.7c45.9-32.5,96.3-53.3,151.2-62.2v-67c0-16.6,5.9-30.9,17.7-43.1C468.3,16.1,482.6,10,499.5,10c16.9,0,31.4,6.1,43.5,18.2s18.2,26.5,18.2,43.1v67c54.9,8.9,104.9,29.4,150.2,61.2l49.8-49.8c12.1-12.1,26.8-18.2,44-18.2c17.2,0,31.9,6.1,44,18.2c12.1,12.1,18.2,26.8,18.2,44c0,17.2-6.1,31.6-18.2,43.1l-49.8,50.7c32.5,45.3,53.3,95.7,62.2,151.2h67c16.6,0,30.9,6.1,43.1,18.2c12.1,12.1,18.2,26.6,18.2,43.5c0,16.9-6.1,31.3-18.2,43.1C959.7,555.3,945.3,561.2,928.7,561.2L928.7,561.2z M255,377.5c0,15.3,1,32.2,2.9,50.7s4.8,38.3,8.6,59.3s10.1,38.6,18.7,52.6c8.6,14,19,21,31.1,21.1c14.7,0,28.4-0.8,41.2-2.4c12.8-1.6,25.7-4.5,38.8-8.6c13.1-4.2,23.4-10.6,31.1-19.2c7.7-8.6,11.5-19,11.5-31.1L255,377.5z M408.1,683.7c-8.3,0-15.5,3-21.6,9.1c-6.1,6-9.1,13.2-9.1,21.6c0,8.3,3.1,15.5,9.1,21.6c6,6,13.2,9.1,21.6,9.1h183.7c8.3,0,15.5-3,21.6-9.1c6.1-6,9.1-13.2,9.1-21.6c0-8.3-3.1-15.5-9.1-21.6c-6-6-13.2-9.1-21.6-9.1H408.1z M561.2,500c0,12.1,3.8,22.5,11.5,31.1c7.7,8.6,18,15,31.1,19.2c13.1,4.2,26,7,38.8,8.6c12.8,1.6,26.5,2.4,41.2,2.4c12.1,0,22.5-7,31.1-21.1c8.6-14,14.8-31.6,18.7-52.6c3.8-21,6.7-40.8,8.6-59.3c1.9-18.5,2.9-35.4,2.9-50.7L561.2,500z"/></g>
</svg>
